<svg xmlns="http://www.w3.org/2000/svg" width="24" height="24" viewBox="0 0 24 24">
  <g transform="translate(0,-3.88)">
    <path fill="#000000" d="M17.35,11.93v-1.99c0,-1.98 -3.79,-3.05 -7.35,-3.05s-7.35,1.07 -7.35,3.09v2.66c0,1.24 1.42,2.2 4,2.71v1.99c0,0.18 0.06,0.35 0.13,0.54 -1.55,0.54 -2.43,1.39 -2.43,2.36v2.86c0.01,0.58 0.35,1.1 1.01,1.57l0.39,0.25v-0.04c1.35,0.74 3.61,1.2 5.95,1.2s4.6,-0.46 5.95,-1.2v0.06l0.39,-0.27c0.65,-0.45 0.98,-0.97 1.01,-1.58v-2.96c0,-0.18 -0.06,-0.35 -0.13,-0.55 1.61,-0.58 2.43,-1.38 2.43,-2.35v-2.6c0,-1.24 -1.53,-2.27 -4,-2.71ZM10,14.4c-3.93,0 -5.95,-1.16 -5.95,-1.65v-0.95c1.35,0.74 3.61,1.2 5.95,1.2s4.6,-0.46 5.95,-1.2v0.95c0,0.49 -2.02,1.65 -5.95,1.65ZM10,11.6c-3.93,0 -5.95,-1.16 -5.95,-1.65s2.02,-1.65 5.95,-1.65 5.95,1.16 5.95,1.65 -2.02,1.65 -5.95,1.65ZM17.28,13.34c1.89,0.41 2.67,1.05 2.67,1.31 0,0.49 -2.02,1.65 -5.95,1.65 -1.73,0 -3.09,-0.22 -4.06,-0.5 0.05,0 0.1,0 0.16,0 3.19,0 6.58,-0.84 7.18,-2.46ZM11.7,21.9c-3.93,0 -5.95,-1.16 -5.95,-1.65 0,-0.2 0.49,-0.73 2,-1.13 1.29,0.84 3.73,1.38 6.25,1.38 1.38,0 2.53,-0.12 3.6,-0.37 0.03,0.05 0.05,0.1 0.05,0.12 0,0.49 -2.02,1.65 -5.95,1.65ZM5.75,21.99c1.35,0.74 3.61,1.2 5.95,1.2s4.6,-0.46 5.95,-1.2v0.95c0,0.49 -2.02,1.65 -5.95,1.65s-5.95,-1.16 -5.95,-1.65v-0.95ZM8.05,17.45v-0.95c1.35,0.74 3.61,1.2 5.95,1.2s4.6,-0.46 5.95,-1.2v0.95c0,0.49 -2.02,1.65 -5.95,1.65s-5.95,-1.16 -5.95,-1.65Z"/>
  </g>
</svg>
